<?xml version="1.0" encoding="utf-8"?>
<!-- Generator: Adobe Illustrator 22.0.0, SVG Export Plug-In . SVG Version: 6.00 Build 0)  -->
<svg version="1.1" id="Layer_1" xmlns="http://www.w3.org/2000/svg" xmlns:xlink="http://www.w3.org/1999/xlink" x="0px" y="0px"
	 viewBox="0 0 496 496" style="enable-background:new 0 0 496 496;" xml:space="preserve">
<g>
	<g>
		<g>
			<path d="M414,257.1C403,192.2,346.5,144,280,144c-12.1,0-23.8,1.6-35,4.6c-19.5-28-50.7-44.6-85-44.6c-57.3,0-104,46.7-104,104
				c0,23.7,8,46.3,22.6,64.6C34.5,277.3,0,314.7,0,360c0,48.5,39.5,88,88,88h312c52.9,0,96-43.1,96-96
				C496,304.4,460.5,263.9,414,257.1z M72,208c0-48.5,39.5-88,88-88c27.4,0,52.6,12.5,69.2,33.9c-37.4,15.1-66.9,46.3-79.1,86.4
				c-2-0.2-4.1-0.3-6.1-0.3c-20.1,0-39.1,8.6-52.6,23.1C78.8,247.5,72,228.2,72,208z M400,432H88c-39.7,0-72-32.3-72-72
				s32.3-72,71.7-72l5.5,0l2.3-4c10-17.3,28.6-28,48.5-28c3.4,0,6.9,0.3,10.4,1l7.4,1.4l1.8-7.3C177,197.4,224.8,160,280,160
				c60.5,0,111.7,45.3,119,105.3l0.6,4.6c0.3,3.3,0.4,6.7,0.4,10.1c0,66.2-53.8,120-120,120v16c75,0,136-61,136-136
				c0-2.1-0.2-4.2-0.3-6.3c36.7,7.4,64.3,40.1,64.3,78.3C480,396.1,444.1,432,400,432z"/>
			<rect y="200" width="40" height="16"/>
			<rect x="239" y="101" transform="matrix(0.7071 -0.7071 0.7071 0.7071 -1.2236 215.0605)" width="40" height="16"/>
			<rect x="152" y="48" width="16" height="40"/>
			<rect x="53" y="89" transform="matrix(0.7071 -0.7072 0.7072 0.7071 -59.2014 75.0465)" width="16" height="40"/>
			<rect x="101.5" y="74" transform="matrix(0.9238 -0.3828 0.3828 0.9238 -24.597 48.4648)" width="16" height="24"/>
			<rect x="30.1" y="145.5" transform="matrix(0.3827 -0.9239 0.9239 0.3827 -122.0253 132.4247)" width="16" height="24"/>
			<rect x="26" y="250.5" transform="matrix(0.9238 -0.3828 0.3828 0.9238 -96.0526 34.244)" width="24" height="16"/>
			<rect x="198.5" y="78" transform="matrix(0.3828 -0.9238 0.9238 0.3828 50.4298 247.58)" width="24" height="16"/>
		</g>
	</g>
</g>
</svg>
